<mxfile host="app.diagrams.net" modified="2024-05-10T00:35:53.516Z" agent="Mozilla/5.0 (Windows NT 10.0; Win64; x64) AppleWebKit/537.36 (KHTML, like Gecko) Chrome/124.0.0.0 Safari/537.36" etag="emTdFzupSI_znsqzf6S5" version="24.3.1" type="onedrive">
  <diagram id="y8Kp_UAkve5eIDwRYYiN" name="페이지-2">
    <mxGraphModel dx="2944" dy="1699" grid="0" gridSize="10" guides="1" tooltips="1" connect="1" arrows="1" fold="1" page="1" pageScale="1" pageWidth="827" pageHeight="1169" math="0" shadow="0">
      <root>
        <mxCell id="0" />
        <mxCell id="1" parent="0" />
        <mxCell id="5Cm-LyO7Gywk7IhDr47E-111" value="dev CodePipeline&lt;div&gt;&lt;br&gt;&lt;/div&gt;" style="outlineConnect=0;gradientColor=none;html=1;whiteSpace=wrap;fontSize=12;fontStyle=0;strokeColor=#FF9900;fillColor=none;verticalAlign=top;align=center;fontColor=#FF9900;dashed=0;spacingTop=3;" vertex="1" parent="1">
          <mxGeometry x="-873" y="286" width="271" height="170" as="geometry" />
        </mxCell>
        <mxCell id="5Cm-LyO7Gywk7IhDr47E-112" value="Availability Zone" style="fillColor=none;strokeColor=#147EBA;dashed=1;verticalAlign=top;fontStyle=0;fontColor=#147EBA;whiteSpace=wrap;html=1;" vertex="1" parent="1">
          <mxGeometry x="-361" y="156" width="290" height="720" as="geometry" />
        </mxCell>
        <mxCell id="5Cm-LyO7Gywk7IhDr47E-113" value="Availability Zone" style="fillColor=none;strokeColor=#147EBA;dashed=1;verticalAlign=top;fontStyle=0;fontColor=#147EBA;whiteSpace=wrap;html=1;container=0;" vertex="1" parent="1">
          <mxGeometry x="89" y="156" width="290" height="720" as="geometry" />
        </mxCell>
        <mxCell id="5Cm-LyO7Gywk7IhDr47E-114" value="VPC" style="points=[[0,0],[0.25,0],[0.5,0],[0.75,0],[1,0],[1,0.25],[1,0.5],[1,0.75],[1,1],[0.75,1],[0.5,1],[0.25,1],[0,1],[0,0.75],[0,0.5],[0,0.25]];outlineConnect=0;gradientColor=none;html=1;whiteSpace=wrap;fontSize=12;fontStyle=0;container=0;pointerEvents=0;collapsible=0;recursiveResize=0;shape=mxgraph.aws4.group;grIcon=mxgraph.aws4.group_vpc2;strokeColor=#8C4FFF;fillColor=none;verticalAlign=top;align=left;spacingLeft=30;fontColor=#AAB7B8;dashed=0;" vertex="1" parent="1">
          <mxGeometry x="-381" y="186" width="790" height="670" as="geometry" />
        </mxCell>
        <mxCell id="5Cm-LyO7Gywk7IhDr47E-115" value="AWS Cloud" style="points=[[0,0],[0.25,0],[0.5,0],[0.75,0],[1,0],[1,0.25],[1,0.5],[1,0.75],[1,1],[0.75,1],[0.5,1],[0.25,1],[0,1],[0,0.75],[0,0.5],[0,0.25]];outlineConnect=0;gradientColor=none;html=1;whiteSpace=wrap;fontSize=12;fontStyle=0;container=0;pointerEvents=0;collapsible=0;recursiveResize=0;shape=mxgraph.aws4.group;grIcon=mxgraph.aws4.group_aws_cloud_alt;strokeColor=#232F3E;fillColor=none;verticalAlign=top;align=left;spacingLeft=30;fontColor=#232F3E;dashed=0;" vertex="1" parent="1">
          <mxGeometry x="-1084" y="-124" width="1578" height="1153" as="geometry" />
        </mxCell>
        <mxCell id="5Cm-LyO7Gywk7IhDr47E-116" value="Region" style="points=[[0,0],[0.25,0],[0.5,0],[0.75,0],[1,0],[1,0.25],[1,0.5],[1,0.75],[1,1],[0.75,1],[0.5,1],[0.25,1],[0,1],[0,0.75],[0,0.5],[0,0.25]];outlineConnect=0;gradientColor=none;html=1;whiteSpace=wrap;fontSize=12;fontStyle=0;container=0;pointerEvents=0;collapsible=0;recursiveResize=0;shape=mxgraph.aws4.group;grIcon=mxgraph.aws4.group_region;strokeColor=#00A4A6;fillColor=none;verticalAlign=top;align=left;spacingLeft=30;fontColor=#147EBA;dashed=1;" vertex="1" parent="1">
          <mxGeometry x="-401" y="126" width="830" height="780" as="geometry" />
        </mxCell>
        <mxCell id="5Cm-LyO7Gywk7IhDr47E-117" value="Public subnet" style="points=[[0,0],[0.25,0],[0.5,0],[0.75,0],[1,0],[1,0.25],[1,0.5],[1,0.75],[1,1],[0.75,1],[0.5,1],[0.25,1],[0,1],[0,0.75],[0,0.5],[0,0.25]];outlineConnect=0;gradientColor=none;html=1;whiteSpace=wrap;fontSize=12;fontStyle=0;container=0;pointerEvents=0;collapsible=0;recursiveResize=0;shape=mxgraph.aws4.group;grIcon=mxgraph.aws4.group_security_group;grStroke=0;strokeColor=#7AA116;fillColor=#F2F6E8;verticalAlign=top;align=left;spacingLeft=30;fontColor=#248814;dashed=0;" vertex="1" parent="1">
          <mxGeometry x="169" y="216" width="160" height="140" as="geometry" />
        </mxCell>
        <mxCell id="5Cm-LyO7Gywk7IhDr47E-118" value="" style="sketch=0;outlineConnect=0;fontColor=#232F3E;gradientColor=none;fillColor=#8C4FFF;strokeColor=none;dashed=0;verticalLabelPosition=bottom;verticalAlign=top;align=center;html=1;fontSize=12;fontStyle=0;aspect=fixed;pointerEvents=1;shape=mxgraph.aws4.internet_gateway;" vertex="1" parent="1">
          <mxGeometry x="-6" y="166" width="40" height="40" as="geometry" />
        </mxCell>
        <mxCell id="5Cm-LyO7Gywk7IhDr47E-119" value="Session&lt;div&gt;Manager&lt;/div&gt;" style="sketch=0;outlineConnect=0;fontColor=#232F3E;gradientColor=none;fillColor=#E7157B;strokeColor=none;dashed=0;verticalLabelPosition=bottom;verticalAlign=top;align=center;html=1;fontSize=12;fontStyle=0;aspect=fixed;pointerEvents=1;shape=mxgraph.aws4.systems_manager_session_manager;" vertex="1" parent="1">
          <mxGeometry x="-591" y="-99" width="50" height="50" as="geometry" />
        </mxCell>
        <mxCell id="5Cm-LyO7Gywk7IhDr47E-120" value="S3" style="sketch=0;points=[[0,0,0],[0.25,0,0],[0.5,0,0],[0.75,0,0],[1,0,0],[0,1,0],[0.25,1,0],[0.5,1,0],[0.75,1,0],[1,1,0],[0,0.25,0],[0,0.5,0],[0,0.75,0],[1,0.25,0],[1,0.5,0],[1,0.75,0]];outlineConnect=0;fontColor=#232F3E;fillColor=#7AA116;strokeColor=#ffffff;dashed=0;verticalLabelPosition=bottom;verticalAlign=top;align=center;html=1;fontSize=12;fontStyle=0;aspect=fixed;shape=mxgraph.aws4.resourceIcon;resIcon=mxgraph.aws4.s3;" vertex="1" parent="1">
          <mxGeometry x="-680" y="-104" width="60" height="60" as="geometry" />
        </mxCell>
        <mxCell id="5Cm-LyO7Gywk7IhDr47E-121" value="" style="edgeStyle=orthogonalEdgeStyle;html=1;endArrow=none;elbow=vertical;startArrow=block;startFill=1;strokeColor=#545B64;rounded=0;" edge="1" parent="1" source="5Cm-LyO7Gywk7IhDr47E-120" target="5Cm-LyO7Gywk7IhDr47E-111">
          <mxGeometry width="100" relative="1" as="geometry">
            <mxPoint x="-291" y="486" as="sourcePoint" />
            <mxPoint x="-191" y="486" as="targetPoint" />
            <Array as="points">
              <mxPoint x="-640" y="201" />
              <mxPoint x="-640" y="201" />
            </Array>
          </mxGeometry>
        </mxCell>
        <mxCell id="5Cm-LyO7Gywk7IhDr47E-122" value="CloudWatch" style="sketch=0;points=[[0,0,0],[0.25,0,0],[0.5,0,0],[0.75,0,0],[1,0,0],[0,1,0],[0.25,1,0],[0.5,1,0],[0.75,1,0],[1,1,0],[0,0.25,0],[0,0.5,0],[0,0.75,0],[1,0.25,0],[1,0.5,0],[1,0.75,0]];points=[[0,0,0],[0.25,0,0],[0.5,0,0],[0.75,0,0],[1,0,0],[0,1,0],[0.25,1,0],[0.5,1,0],[0.75,1,0],[1,1,0],[0,0.25,0],[0,0.5,0],[0,0.75,0],[1,0.25,0],[1,0.5,0],[1,0.75,0]];outlineConnect=0;fontColor=#232F3E;fillColor=#E7157B;strokeColor=#ffffff;dashed=0;verticalLabelPosition=bottom;verticalAlign=top;align=center;html=1;fontSize=12;fontStyle=0;aspect=fixed;shape=mxgraph.aws4.resourceIcon;resIcon=mxgraph.aws4.cloudwatch_2;" vertex="1" parent="1">
          <mxGeometry x="-591.5" y="812" width="52.5" height="52.5" as="geometry" />
        </mxCell>
        <mxCell id="5Cm-LyO7Gywk7IhDr47E-123" value="SNS" style="sketch=0;points=[[0,0,0],[0.25,0,0],[0.5,0,0],[0.75,0,0],[1,0,0],[0,1,0],[0.25,1,0],[0.5,1,0],[0.75,1,0],[1,1,0],[0,0.25,0],[0,0.5,0],[0,0.75,0],[1,0.25,0],[1,0.5,0],[1,0.75,0]];outlineConnect=0;fontColor=#232F3E;fillColor=#E7157B;strokeColor=#ffffff;dashed=0;verticalLabelPosition=bottom;verticalAlign=top;align=center;html=1;fontSize=12;fontStyle=0;aspect=fixed;shape=mxgraph.aws4.resourceIcon;resIcon=mxgraph.aws4.sns;" vertex="1" parent="1">
          <mxGeometry x="-749" y="814.5" width="50" height="50" as="geometry" />
        </mxCell>
        <mxCell id="5Cm-LyO7Gywk7IhDr47E-124" value="Alarm" style="sketch=0;outlineConnect=0;fontColor=#232F3E;gradientColor=none;fillColor=#E7157B;strokeColor=none;dashed=0;verticalLabelPosition=bottom;verticalAlign=top;align=center;html=1;fontSize=12;fontStyle=0;aspect=fixed;pointerEvents=1;shape=mxgraph.aws4.alarm;" vertex="1" parent="1">
          <mxGeometry x="-670.25" y="812" width="48.75" height="48.75" as="geometry" />
        </mxCell>
        <mxCell id="5Cm-LyO7Gywk7IhDr47E-125" value="Lambda" style="sketch=0;points=[[0,0,0],[0.25,0,0],[0.5,0,0],[0.75,0,0],[1,0,0],[0,1,0],[0.25,1,0],[0.5,1,0],[0.75,1,0],[1,1,0],[0,0.25,0],[0,0.5,0],[0,0.75,0],[1,0.25,0],[1,0.5,0],[1,0.75,0]];outlineConnect=0;fontColor=#232F3E;fillColor=#ED7100;strokeColor=#ffffff;dashed=0;verticalLabelPosition=bottom;verticalAlign=top;align=center;html=1;fontSize=12;fontStyle=0;aspect=fixed;shape=mxgraph.aws4.resourceIcon;resIcon=mxgraph.aws4.lambda;" vertex="1" parent="1">
          <mxGeometry x="-749" y="722" width="50" height="50" as="geometry" />
        </mxCell>
        <mxCell id="5Cm-LyO7Gywk7IhDr47E-126" value="Slack" style="shape=image;html=1;verticalAlign=top;verticalLabelPosition=bottom;labelBackgroundColor=#ffffff;imageAspect=0;aspect=fixed;image=https://cdn2.iconfinder.com/data/icons/social-media-2285/512/1_Slack_colored_svg-128.png" vertex="1" parent="1">
          <mxGeometry x="-839" y="723" width="48" height="48" as="geometry" />
        </mxCell>
        <mxCell id="5Cm-LyO7Gywk7IhDr47E-127" value="" style="edgeStyle=orthogonalEdgeStyle;html=1;endArrow=none;elbow=vertical;startArrow=block;startFill=1;strokeColor=#545B64;rounded=0;entryX=0;entryY=0.75;entryDx=0;entryDy=0;exitX=1;exitY=0.5;exitDx=0;exitDy=0;exitPerimeter=0;" edge="1" parent="1" source="5Cm-LyO7Gywk7IhDr47E-122" target="5Cm-LyO7Gywk7IhDr47E-170">
          <mxGeometry width="100" relative="1" as="geometry">
            <mxPoint x="-483" y="839" as="sourcePoint" />
            <mxPoint x="-191" y="386" as="targetPoint" />
            <Array as="points">
              <mxPoint x="-411" y="838" />
              <mxPoint x="-411" y="459" />
              <mxPoint x="-291" y="459" />
            </Array>
          </mxGeometry>
        </mxCell>
        <mxCell id="5Cm-LyO7Gywk7IhDr47E-128" value="Parameter&lt;div&gt;Store&lt;/div&gt;" style="sketch=0;outlineConnect=0;fontColor=#232F3E;gradientColor=none;fillColor=#E7157B;strokeColor=none;dashed=0;verticalLabelPosition=bottom;verticalAlign=top;align=center;html=1;fontSize=12;fontStyle=0;aspect=fixed;pointerEvents=1;shape=mxgraph.aws4.parameter_store;" vertex="1" parent="1">
          <mxGeometry x="-639.5799999999999" y="722" width="48.08" height="50" as="geometry" />
        </mxCell>
        <mxCell id="5Cm-LyO7Gywk7IhDr47E-129" value="" style="edgeStyle=orthogonalEdgeStyle;html=1;endArrow=none;elbow=vertical;startArrow=block;startFill=1;strokeColor=#545B64;rounded=0;" edge="1" parent="1">
          <mxGeometry width="100" relative="1" as="geometry">
            <mxPoint x="-621.6340589140618" y="839.4000000000001" as="sourcePoint" />
            <mxPoint x="-591.5" y="839.4000000000001" as="targetPoint" />
            <Array as="points">
              <mxPoint x="-599" y="839" />
              <mxPoint x="-599" y="839" />
            </Array>
          </mxGeometry>
        </mxCell>
        <mxCell id="5Cm-LyO7Gywk7IhDr47E-130" value="" style="edgeStyle=orthogonalEdgeStyle;html=1;endArrow=none;elbow=vertical;startArrow=block;startFill=1;strokeColor=#545B64;rounded=0;" edge="1" parent="1" source="5Cm-LyO7Gywk7IhDr47E-123" target="5Cm-LyO7Gywk7IhDr47E-124">
          <mxGeometry width="100" relative="1" as="geometry">
            <mxPoint x="-609" y="850" as="sourcePoint" />
            <mxPoint x="-669" y="840" as="targetPoint" />
            <Array as="points">
              <mxPoint x="-679" y="840" />
              <mxPoint x="-679" y="840" />
            </Array>
          </mxGeometry>
        </mxCell>
        <mxCell id="5Cm-LyO7Gywk7IhDr47E-131" value="" style="edgeStyle=orthogonalEdgeStyle;html=1;endArrow=none;elbow=vertical;startArrow=block;startFill=1;strokeColor=#545B64;rounded=0;entryX=0.5;entryY=0;entryDx=0;entryDy=0;entryPerimeter=0;exitX=0.5;exitY=1;exitDx=0;exitDy=0;exitPerimeter=0;" edge="1" parent="1" source="5Cm-LyO7Gywk7IhDr47E-125" target="5Cm-LyO7Gywk7IhDr47E-123">
          <mxGeometry width="100" relative="1" as="geometry">
            <mxPoint x="-839" y="790" as="sourcePoint" />
            <mxPoint x="-739" y="790" as="targetPoint" />
          </mxGeometry>
        </mxCell>
        <mxCell id="5Cm-LyO7Gywk7IhDr47E-132" value="" style="edgeStyle=orthogonalEdgeStyle;html=1;endArrow=none;elbow=vertical;startArrow=block;startFill=1;strokeColor=#545B64;rounded=0;entryX=0;entryY=0.5;entryDx=0;entryDy=0;entryPerimeter=0;exitX=1;exitY=0.5;exitDx=0;exitDy=0;" edge="1" parent="1" source="5Cm-LyO7Gywk7IhDr47E-126" target="5Cm-LyO7Gywk7IhDr47E-125">
          <mxGeometry width="100" relative="1" as="geometry">
            <mxPoint x="-849" y="710" as="sourcePoint" />
            <mxPoint x="-749" y="710" as="targetPoint" />
          </mxGeometry>
        </mxCell>
        <mxCell id="5Cm-LyO7Gywk7IhDr47E-133" value="" style="edgeStyle=orthogonalEdgeStyle;html=1;endArrow=block;elbow=vertical;startArrow=block;startFill=1;endFill=1;strokeColor=#545B64;rounded=0;exitX=1;exitY=0.5;exitDx=0;exitDy=0;exitPerimeter=0;" edge="1" parent="1" source="5Cm-LyO7Gywk7IhDr47E-125" target="5Cm-LyO7Gywk7IhDr47E-128">
          <mxGeometry width="100" relative="1" as="geometry">
            <mxPoint x="-689" y="750" as="sourcePoint" />
            <mxPoint x="-589" y="750" as="targetPoint" />
          </mxGeometry>
        </mxCell>
        <mxCell id="5Cm-LyO7Gywk7IhDr47E-134" value="" style="sketch=0;outlineConnect=0;fontColor=#232F3E;gradientColor=none;fillColor=#232F3D;strokeColor=none;dashed=0;verticalLabelPosition=bottom;verticalAlign=top;align=center;html=1;fontSize=12;fontStyle=0;aspect=fixed;pointerEvents=1;shape=mxgraph.aws4.user;" vertex="1" parent="1">
          <mxGeometry x="-11" y="-204" width="50" height="50" as="geometry" />
        </mxCell>
        <mxCell id="5Cm-LyO7Gywk7IhDr47E-135" value="" style="points=[[0.35,0,0],[0.98,0.51,0],[1,0.71,0],[0.67,1,0],[0,0.795,0],[0,0.65,0]];verticalLabelPosition=bottom;sketch=0;html=1;verticalAlign=top;aspect=fixed;align=center;pointerEvents=1;shape=mxgraph.cisco19.user;fillColor=#005073;strokeColor=none;" vertex="1" parent="1">
          <mxGeometry x="-1221" y="384" width="50" height="50" as="geometry" />
        </mxCell>
        <mxCell id="5Cm-LyO7Gywk7IhDr47E-136" value="WAF" style="sketch=0;points=[[0,0,0],[0.25,0,0],[0.5,0,0],[0.75,0,0],[1,0,0],[0,1,0],[0.25,1,0],[0.5,1,0],[0.75,1,0],[1,1,0],[0,0.25,0],[0,0.5,0],[0,0.75,0],[1,0.25,0],[1,0.5,0],[1,0.75,0]];outlineConnect=0;fontColor=#232F3E;fillColor=#DD344C;strokeColor=#ffffff;dashed=0;verticalLabelPosition=bottom;verticalAlign=top;align=center;html=1;fontSize=12;fontStyle=0;aspect=fixed;shape=mxgraph.aws4.resourceIcon;resIcon=mxgraph.aws4.waf;" vertex="1" parent="1">
          <mxGeometry x="-11" y="56" width="50" height="50" as="geometry" />
        </mxCell>
        <mxCell id="5Cm-LyO7Gywk7IhDr47E-137" value="Route53" style="sketch=0;points=[[0,0,0],[0.25,0,0],[0.5,0,0],[0.75,0,0],[1,0,0],[0,1,0],[0.25,1,0],[0.5,1,0],[0.75,1,0],[1,1,0],[0,0.25,0],[0,0.5,0],[0,0.75,0],[1,0.25,0],[1,0.5,0],[1,0.75,0]];outlineConnect=0;fontColor=#232F3E;fillColor=#8C4FFF;strokeColor=#ffffff;dashed=0;verticalLabelPosition=bottom;verticalAlign=top;align=center;html=1;fontSize=12;fontStyle=0;aspect=fixed;shape=mxgraph.aws4.resourceIcon;resIcon=mxgraph.aws4.route_53;" vertex="1" parent="1">
          <mxGeometry x="-11" y="-104" width="50" height="50" as="geometry" />
        </mxCell>
        <mxCell id="5Cm-LyO7Gywk7IhDr47E-138" value="Shield" style="sketch=0;points=[[0,0,0],[0.25,0,0],[0.5,0,0],[0.75,0,0],[1,0,0],[0,1,0],[0.25,1,0],[0.5,1,0],[0.75,1,0],[1,1,0],[0,0.25,0],[0,0.5,0],[0,0.75,0],[1,0.25,0],[1,0.5,0],[1,0.75,0]];outlineConnect=0;fontColor=#232F3E;fillColor=#DD344C;strokeColor=#ffffff;dashed=0;verticalLabelPosition=bottom;verticalAlign=top;align=center;html=1;fontSize=12;fontStyle=0;aspect=fixed;shape=mxgraph.aws4.resourceIcon;resIcon=mxgraph.aws4.shield;" vertex="1" parent="1">
          <mxGeometry x="-461" y="-104" width="60" height="60" as="geometry" />
        </mxCell>
        <mxCell id="5Cm-LyO7Gywk7IhDr47E-139" value="" style="edgeStyle=orthogonalEdgeStyle;html=1;endArrow=block;elbow=vertical;startArrow=none;endFill=1;strokeColor=#545B64;rounded=0;entryX=0.5;entryY=0;entryDx=0;entryDy=0;entryPerimeter=0;" edge="1" parent="1" source="5Cm-LyO7Gywk7IhDr47E-134" target="5Cm-LyO7Gywk7IhDr47E-137">
          <mxGeometry width="100" relative="1" as="geometry">
            <mxPoint x="-168.5" y="5" as="sourcePoint" />
            <mxPoint x="-68.5" y="5" as="targetPoint" />
          </mxGeometry>
        </mxCell>
        <mxCell id="5Cm-LyO7Gywk7IhDr47E-140" value="" style="edgeStyle=orthogonalEdgeStyle;html=1;endArrow=block;elbow=vertical;startArrow=none;endFill=1;strokeColor=#545B64;rounded=0;exitX=0.5;exitY=1;exitDx=0;exitDy=0;exitPerimeter=0;" edge="1" parent="1" source="5Cm-LyO7Gywk7IhDr47E-136" target="5Cm-LyO7Gywk7IhDr47E-118">
          <mxGeometry width="100" relative="1" as="geometry">
            <mxPoint x="41.5" y="136" as="sourcePoint" />
            <mxPoint x="141.5" y="136" as="targetPoint" />
          </mxGeometry>
        </mxCell>
        <mxCell id="5Cm-LyO7Gywk7IhDr47E-141" value="" style="edgeStyle=orthogonalEdgeStyle;html=1;endArrow=block;elbow=vertical;startArrow=none;endFill=1;strokeColor=#545B64;rounded=0;" edge="1" parent="1" source="5Cm-LyO7Gywk7IhDr47E-118">
          <mxGeometry width="100" relative="1" as="geometry">
            <mxPoint x="11.5" y="256" as="sourcePoint" />
            <mxPoint x="14" y="336.0004545351244" as="targetPoint" />
          </mxGeometry>
        </mxCell>
        <mxCell id="5Cm-LyO7Gywk7IhDr47E-142" value="" style="edgeStyle=orthogonalEdgeStyle;html=1;endArrow=none;elbow=vertical;startArrow=block;startFill=1;strokeColor=#545B64;rounded=0;entryX=0;entryY=0.5;entryDx=0;entryDy=0;" edge="1" parent="1" source="5Cm-LyO7Gywk7IhDr47E-122">
          <mxGeometry width="100" relative="1" as="geometry">
            <mxPoint x="-371" y="606" as="sourcePoint" />
            <mxPoint x="-281" y="609.75" as="targetPoint" />
            <Array as="points">
              <mxPoint x="-411" y="840" />
              <mxPoint x="-411" y="607" />
              <mxPoint x="-273" y="607" />
              <mxPoint x="-273" y="610" />
            </Array>
          </mxGeometry>
        </mxCell>
        <mxCell id="5Cm-LyO7Gywk7IhDr47E-143" value="AWS S3" style="sketch=0;points=[[0,0,0],[0.25,0,0],[0.5,0,0],[0.75,0,0],[1,0,0],[0,1,0],[0.25,1,0],[0.5,1,0],[0.75,1,0],[1,1,0],[0,0.25,0],[0,0.5,0],[0,0.75,0],[1,0.25,0],[1,0.5,0],[1,0.75,0]];outlineConnect=0;fontColor=#232F3E;fillColor=#7AA116;strokeColor=#ffffff;dashed=0;verticalLabelPosition=bottom;verticalAlign=top;align=center;html=1;fontSize=12;fontStyle=0;aspect=fixed;shape=mxgraph.aws4.resourceIcon;resIcon=mxgraph.aws4.s3;" vertex="1" parent="1">
          <mxGeometry x="-480" y="926" width="50" height="50" as="geometry" />
        </mxCell>
        <mxCell id="5Cm-LyO7Gywk7IhDr47E-144" value="Lambda" style="sketch=0;points=[[0,0,0],[0.25,0,0],[0.5,0,0],[0.75,0,0],[1,0,0],[0,1,0],[0.25,1,0],[0.5,1,0],[0.75,1,0],[1,1,0],[0,0.25,0],[0,0.5,0],[0,0.75,0],[1,0.25,0],[1,0.5,0],[1,0.75,0]];outlineConnect=0;fontColor=#232F3E;fillColor=#ED7100;strokeColor=#ffffff;dashed=0;verticalLabelPosition=bottom;verticalAlign=top;align=center;html=1;fontSize=12;fontStyle=0;aspect=fixed;shape=mxgraph.aws4.resourceIcon;resIcon=mxgraph.aws4.lambda;" vertex="1" parent="1">
          <mxGeometry x="-576" y="926" width="50" height="50" as="geometry" />
        </mxCell>
        <mxCell id="5Cm-LyO7Gywk7IhDr47E-145" value="Athena" style="sketch=0;points=[[0,0,0],[0.25,0,0],[0.5,0,0],[0.75,0,0],[1,0,0],[0,1,0],[0.25,1,0],[0.5,1,0],[0.75,1,0],[1,1,0],[0,0.25,0],[0,0.5,0],[0,0.75,0],[1,0.25,0],[1,0.5,0],[1,0.75,0]];outlineConnect=0;fontColor=#232F3E;fillColor=#8C4FFF;strokeColor=#ffffff;dashed=0;verticalLabelPosition=bottom;verticalAlign=top;align=center;html=1;fontSize=12;fontStyle=0;aspect=fixed;shape=mxgraph.aws4.resourceIcon;resIcon=mxgraph.aws4.athena;" vertex="1" parent="1">
          <mxGeometry x="-766" y="927" width="48" height="48" as="geometry" />
        </mxCell>
        <mxCell id="5Cm-LyO7Gywk7IhDr47E-146" value="AWS Glue" style="sketch=0;points=[[0,0,0],[0.25,0,0],[0.5,0,0],[0.75,0,0],[1,0,0],[0,1,0],[0.25,1,0],[0.5,1,0],[0.75,1,0],[1,1,0],[0,0.25,0],[0,0.5,0],[0,0.75,0],[1,0.25,0],[1,0.5,0],[1,0.75,0]];outlineConnect=0;fontColor=#232F3E;fillColor=#8C4FFF;strokeColor=#ffffff;dashed=0;verticalLabelPosition=bottom;verticalAlign=top;align=center;html=1;fontSize=12;fontStyle=0;aspect=fixed;shape=mxgraph.aws4.resourceIcon;resIcon=mxgraph.aws4.glue;" vertex="1" parent="1">
          <mxGeometry x="-670" y="927" width="48" height="48" as="geometry" />
        </mxCell>
        <mxCell id="5Cm-LyO7Gywk7IhDr47E-147" value="QuickSight" style="sketch=0;points=[[0,0,0],[0.25,0,0],[0.5,0,0],[0.75,0,0],[1,0,0],[0,1,0],[0.25,1,0],[0.5,1,0],[0.75,1,0],[1,1,0],[0,0.25,0],[0,0.5,0],[0,0.75,0],[1,0.25,0],[1,0.5,0],[1,0.75,0]];outlineConnect=0;fontColor=#232F3E;fillColor=#8C4FFF;strokeColor=#ffffff;dashed=0;verticalLabelPosition=bottom;verticalAlign=top;align=center;html=1;fontSize=12;fontStyle=0;aspect=fixed;shape=mxgraph.aws4.resourceIcon;resIcon=mxgraph.aws4.quicksight;" vertex="1" parent="1">
          <mxGeometry x="-867" y="926" width="50" height="50" as="geometry" />
        </mxCell>
        <mxCell id="5Cm-LyO7Gywk7IhDr47E-148" value="" style="endArrow=classic;html=1;rounded=0;exitX=0;exitY=0.5;exitDx=0;exitDy=0;exitPerimeter=0;entryX=1;entryY=0.5;entryDx=0;entryDy=0;entryPerimeter=0;" edge="1" parent="1" source="5Cm-LyO7Gywk7IhDr47E-143" target="5Cm-LyO7Gywk7IhDr47E-144">
          <mxGeometry width="50" height="50" relative="1" as="geometry">
            <mxPoint x="-568" y="1120" as="sourcePoint" />
            <mxPoint x="-445" y="955" as="targetPoint" />
          </mxGeometry>
        </mxCell>
        <mxCell id="5Cm-LyO7Gywk7IhDr47E-149" value="ECR" style="sketch=0;points=[[0,0,0],[0.25,0,0],[0.5,0,0],[0.75,0,0],[1,0,0],[0,1,0],[0.25,1,0],[0.5,1,0],[0.75,1,0],[1,1,0],[0,0.25,0],[0,0.5,0],[0,0.75,0],[1,0.25,0],[1,0.5,0],[1,0.75,0]];outlineConnect=0;fontColor=#232F3E;fillColor=#ED7100;strokeColor=#ffffff;dashed=0;verticalLabelPosition=bottom;verticalAlign=top;align=center;html=1;fontSize=12;fontStyle=0;aspect=fixed;shape=mxgraph.aws4.resourceIcon;resIcon=mxgraph.aws4.ecr;" vertex="1" parent="1">
          <mxGeometry x="-766" y="150" width="58" height="58" as="geometry" />
        </mxCell>
        <mxCell id="5Cm-LyO7Gywk7IhDr47E-150" value="ECS" style="sketch=0;points=[[0,0,0],[0.25,0,0],[0.5,0,0],[0.75,0,0],[1,0,0],[0,1,0],[0.25,1,0],[0.5,1,0],[0.75,1,0],[1,1,0],[0,0.25,0],[0,0.5,0],[0,0.75,0],[1,0.25,0],[1,0.5,0],[1,0.75,0]];outlineConnect=0;fontColor=#232F3E;fillColor=#ED7100;strokeColor=#ffffff;dashed=0;verticalLabelPosition=bottom;verticalAlign=top;align=center;html=1;fontSize=12;fontStyle=0;aspect=fixed;shape=mxgraph.aws4.resourceIcon;resIcon=mxgraph.aws4.ecs;" vertex="1" parent="1">
          <mxGeometry x="-546" y="495" width="59" height="59" as="geometry" />
        </mxCell>
        <mxCell id="5Cm-LyO7Gywk7IhDr47E-151" value="Public subnet" style="points=[[0,0],[0.25,0],[0.5,0],[0.75,0],[1,0],[1,0.25],[1,0.5],[1,0.75],[1,1],[0.75,1],[0.5,1],[0.25,1],[0,1],[0,0.75],[0,0.5],[0,0.25]];outlineConnect=0;gradientColor=none;html=1;whiteSpace=wrap;fontSize=12;fontStyle=0;container=1;pointerEvents=0;collapsible=0;recursiveResize=0;shape=mxgraph.aws4.group;grIcon=mxgraph.aws4.group_security_group;grStroke=0;strokeColor=#7AA116;fillColor=#F2F6E8;verticalAlign=top;align=left;spacingLeft=30;fontColor=#248814;dashed=0;" vertex="1" parent="1">
          <mxGeometry x="-303.5" y="216" width="152.5" height="140" as="geometry" />
        </mxCell>
        <mxCell id="5Cm-LyO7Gywk7IhDr47E-152" value="NAT Gateway" style="sketch=0;outlineConnect=0;fontColor=#232F3E;gradientColor=none;fillColor=#8C4FFF;strokeColor=none;dashed=0;verticalLabelPosition=bottom;verticalAlign=top;align=center;html=1;fontSize=12;fontStyle=0;aspect=fixed;pointerEvents=1;shape=mxgraph.aws4.nat_gateway;" vertex="1" parent="5Cm-LyO7Gywk7IhDr47E-151">
          <mxGeometry x="52.5" y="45" width="40" height="40" as="geometry" />
        </mxCell>
        <mxCell id="5Cm-LyO7Gywk7IhDr47E-153" value="&lt;span style=&quot;color: rgba(0, 0, 0, 0); font-family: monospace; font-size: 0px; text-wrap: nowrap;&quot;&gt;db%3CmxGraphModel%3E%3Croot%3E%3CmxCell%20id%3D%220%22%2F%3E%3CmxCell%20id%3D%221%22%20parent%3D%220%22%2F%3E%3CmxCell%20id%3D%222%22%20value%3D%22ALB%22%20style%3D%22sketch%3D0%3BoutlineConnect%3D0%3BfontColor%3D%23232F3E%3BgradientColor%3Dnone%3BfillColor%3D%238C4FFF%3BstrokeColor%3Dnone%3Bdashed%3D0%3BverticalLabelPosition%3Dbottom%3BverticalAlign%3Dtop%3Balign%3Dcenter%3Bhtml%3D1%3BfontSize%3D12%3BfontStyle%3D0%3Baspect%3Dfixed%3BpointerEvents%3D1%3Bshape%3Dmxgraph.aws4.application_load_balancer%3B%22%20vertex%3D%221%22%20parent%3D%221%22%3E%3CmxGeometry%20x%3D%22753.75%22%20y%3D%22490%22%20width%3D%2240%22%20height%3D%2240%22%20as%3D%22geometry%22%2F%3E%3C%2FmxCell%3E%3CmxCell%20id%3D%223%22%20value%3D%22%22%20style%3D%22edgeStyle%3DorthogonalEdgeStyle%3Bhtml%3D1%3BendArrow%3Dblock%3Belbow%3Dvertical%3BstartArrow%3Dnone%3BendFill%3D1%3BstrokeColor%3D%23545B64%3Brounded%3D0%3BentryX%3D0.5%3BentryY%3D0%3BentryDx%3D0%3BentryDy%3D0%3BentryPerimeter%3D0%3B%22%20edge%3D%221%22%20source%3D%222%22%20parent%3D%221%22%3E%3CmxGeometry%20width%3D%22100%22%20relative%3D%221%22%20as%3D%22geometry%22%3E%3CmxPoint%20x%3D%22800%22%20y%3D%22510%22%20as%3D%22sourcePoint%22%2F%3E%3CmxPoint%20x%3D%22954%22%20y%3D%22566%22%20as%3D%22targetPoint%22%2F%3E%3C%2FmxGeometry%3E%3C%2FmxCell%3E%3CmxCell%20id%3D%224%22%20value%3D%22%22%20style%3D%22edgeStyle%3DorthogonalEdgeStyle%3Bhtml%3D1%3BendArrow%3Dnone%3Belbow%3Dvertical%3BstartArrow%3Dblock%3BstartFill%3D1%3BstrokeColor%3D%23545B64%3Brounded%3D0%3BexitX%3D0.5%3BexitY%3D0%3BexitDx%3D0%3BexitDy%3D0%3BexitPerimeter%3D0%3B%22%20edge%3D%221%22%20target%3D%222%22%20parent%3D%221%22%3E%3CmxGeometry%20width%3D%22100%22%20relative%3D%221%22%20as%3D%22geometry%22%3E%3CmxPoint%20x%3D%22592%22%20y%3D%22566%22%20as%3D%22sourcePoint%22%2F%3E%3CmxPoint%20x%3D%22700%22%20y%3D%22500%22%20as%3D%22targetPoint%22%2F%3E%3CArray%20as%3D%22points%22%3E%3CmxPoint%20x%3D%22592%22%20y%3D%22510%22%2F%3E%3C%2FArray%3E%3C%2FmxGeometry%3E%3C%2FmxCell%3E%3C%2Froot%3E%3C%2FmxGraphModel%3Edfd&lt;/span&gt;&amp;nbsp;DB subnet" style="points=[[0,0],[0.25,0],[0.5,0],[0.75,0],[1,0],[1,0.25],[1,0.5],[1,0.75],[1,1],[0.75,1],[0.5,1],[0.25,1],[0,1],[0,0.75],[0,0.5],[0,0.25]];outlineConnect=0;gradientColor=none;html=1;whiteSpace=wrap;fontSize=12;fontStyle=0;container=1;pointerEvents=0;collapsible=0;recursiveResize=0;shape=mxgraph.aws4.group;grIcon=mxgraph.aws4.group_security_group;grStroke=0;strokeColor=#00A4A6;fillColor=#E6F6F7;verticalAlign=top;align=left;spacingLeft=30;fontColor=#147EBA;dashed=0;" vertex="1" parent="1">
          <mxGeometry x="-304.75" y="676" width="153.75" height="150" as="geometry" />
        </mxCell>
        <mxCell id="5Cm-LyO7Gywk7IhDr47E-154" value="RDS&lt;div&gt;Primary&lt;/div&gt;" style="sketch=0;points=[[0,0,0],[0.25,0,0],[0.5,0,0],[0.75,0,0],[1,0,0],[0,1,0],[0.25,1,0],[0.5,1,0],[0.75,1,0],[1,1,0],[0,0.25,0],[0,0.5,0],[0,0.75,0],[1,0.25,0],[1,0.5,0],[1,0.75,0]];outlineConnect=0;fontColor=#232F3E;fillColor=#C925D1;strokeColor=#ffffff;dashed=0;verticalLabelPosition=bottom;verticalAlign=top;align=center;html=1;fontSize=12;fontStyle=0;aspect=fixed;shape=mxgraph.aws4.resourceIcon;resIcon=mxgraph.aws4.rds;" vertex="1" parent="5Cm-LyO7Gywk7IhDr47E-153">
          <mxGeometry x="53.75" y="45.5" width="39" height="39" as="geometry" />
        </mxCell>
        <mxCell id="5Cm-LyO7Gywk7IhDr47E-155" value="Web subnet" style="points=[[0,0],[0.25,0],[0.5,0],[0.75,0],[1,0],[1,0.25],[1,0.5],[1,0.75],[1,1],[0.75,1],[0.5,1],[0.25,1],[0,1],[0,0.75],[0,0.5],[0,0.25]];outlineConnect=0;gradientColor=none;html=1;whiteSpace=wrap;fontSize=12;fontStyle=0;container=1;pointerEvents=0;collapsible=0;recursiveResize=0;shape=mxgraph.aws4.group;grIcon=mxgraph.aws4.group_security_group;grStroke=0;strokeColor=#00A4A6;fillColor=#E6F6F7;verticalAlign=top;align=left;spacingLeft=30;fontColor=#147EBA;dashed=0;" vertex="1" parent="1">
          <mxGeometry x="-304.75" y="368.5" width="153.75" height="147.5" as="geometry" />
        </mxCell>
        <mxCell id="5Cm-LyO7Gywk7IhDr47E-156" value="web subnet" style="points=[[0,0],[0.25,0],[0.5,0],[0.75,0],[1,0],[1,0.25],[1,0.5],[1,0.75],[1,1],[0.75,1],[0.5,1],[0.25,1],[0,1],[0,0.75],[0,0.5],[0,0.25]];outlineConnect=0;gradientColor=none;html=1;whiteSpace=wrap;fontSize=12;fontStyle=0;container=1;pointerEvents=0;collapsible=0;recursiveResize=0;shape=mxgraph.aws4.group;grIcon=mxgraph.aws4.group_security_group;grStroke=0;strokeColor=#00A4A6;fillColor=#E6F6F7;verticalAlign=top;align=left;spacingLeft=30;fontColor=#147EBA;dashed=0;" vertex="1" parent="1">
          <mxGeometry x="169" y="366" width="160" height="150" as="geometry" />
        </mxCell>
        <mxCell id="5Cm-LyO7Gywk7IhDr47E-157" value="DB subnet" style="points=[[0,0],[0.25,0],[0.5,0],[0.75,0],[1,0],[1,0.25],[1,0.5],[1,0.75],[1,1],[0.75,1],[0.5,1],[0.25,1],[0,1],[0,0.75],[0,0.5],[0,0.25]];outlineConnect=0;gradientColor=none;html=1;whiteSpace=wrap;fontSize=12;fontStyle=0;container=1;pointerEvents=0;collapsible=0;recursiveResize=0;shape=mxgraph.aws4.group;grIcon=mxgraph.aws4.group_security_group;grStroke=0;strokeColor=#00A4A6;fillColor=#E6F6F7;verticalAlign=top;align=left;spacingLeft=30;fontColor=#147EBA;dashed=0;" vertex="1" parent="1">
          <mxGeometry x="169" y="676" width="160" height="150" as="geometry" />
        </mxCell>
        <mxCell id="5Cm-LyO7Gywk7IhDr47E-158" value="RDS&lt;div&gt;Secondary&lt;/div&gt;" style="sketch=0;points=[[0,0,0],[0.25,0,0],[0.5,0,0],[0.75,0,0],[1,0,0],[0,1,0],[0.25,1,0],[0.5,1,0],[0.75,1,0],[1,1,0],[0,0.25,0],[0,0.5,0],[0,0.75,0],[1,0.25,0],[1,0.5,0],[1,0.75,0]];outlineConnect=0;fontColor=#232F3E;fillColor=#C925D1;strokeColor=#ffffff;dashed=0;verticalLabelPosition=bottom;verticalAlign=top;align=center;html=1;fontSize=12;fontStyle=0;aspect=fixed;shape=mxgraph.aws4.resourceIcon;resIcon=mxgraph.aws4.rds;" vertex="1" parent="5Cm-LyO7Gywk7IhDr47E-157">
          <mxGeometry x="60" y="45.5" width="39" height="39" as="geometry" />
        </mxCell>
        <mxCell id="5Cm-LyO7Gywk7IhDr47E-159" value="App subnet" style="points=[[0,0],[0.25,0],[0.5,0],[0.75,0],[1,0],[1,0.25],[1,0.5],[1,0.75],[1,1],[0.75,1],[0.5,1],[0.25,1],[0,1],[0,0.75],[0,0.5],[0,0.25]];outlineConnect=0;gradientColor=none;html=1;whiteSpace=wrap;fontSize=12;fontStyle=0;container=0;pointerEvents=0;collapsible=0;recursiveResize=0;shape=mxgraph.aws4.group;grIcon=mxgraph.aws4.group_security_group;grStroke=0;strokeColor=#00A4A6;fillColor=#E6F6F7;verticalAlign=top;align=left;spacingLeft=30;fontColor=#147EBA;dashed=0;" vertex="1" parent="1">
          <mxGeometry x="-304.75" y="526" width="153.75" height="140" as="geometry" />
        </mxCell>
        <mxCell id="5Cm-LyO7Gywk7IhDr47E-160" value="App subnet" style="points=[[0,0],[0.25,0],[0.5,0],[0.75,0],[1,0],[1,0.25],[1,0.5],[1,0.75],[1,1],[0.75,1],[0.5,1],[0.25,1],[0,1],[0,0.75],[0,0.5],[0,0.25]];outlineConnect=0;gradientColor=none;html=1;whiteSpace=wrap;fontSize=12;fontStyle=0;container=1;pointerEvents=0;collapsible=0;recursiveResize=0;shape=mxgraph.aws4.group;grIcon=mxgraph.aws4.group_security_group;grStroke=0;strokeColor=#00A4A6;fillColor=#E6F6F7;verticalAlign=top;align=left;spacingLeft=30;fontColor=#147EBA;dashed=0;" vertex="1" parent="1">
          <mxGeometry x="169" y="526" width="160" height="140" as="geometry" />
        </mxCell>
        <mxCell id="5Cm-LyO7Gywk7IhDr47E-161" value="ALB" style="sketch=0;outlineConnect=0;fontColor=#232F3E;gradientColor=none;fillColor=#8C4FFF;strokeColor=none;dashed=0;verticalLabelPosition=bottom;verticalAlign=top;align=center;html=1;fontSize=12;fontStyle=0;aspect=fixed;pointerEvents=1;shape=mxgraph.aws4.application_load_balancer;" vertex="1" parent="1">
          <mxGeometry x="-7.25" y="335.5" width="40" height="40" as="geometry" />
        </mxCell>
        <mxCell id="5Cm-LyO7Gywk7IhDr47E-162" value="" style="edgeStyle=orthogonalEdgeStyle;html=1;endArrow=none;elbow=vertical;startArrow=block;startFill=1;strokeColor=#545B64;rounded=0;exitX=1;exitY=0.25;exitDx=0;exitDy=0;" edge="1" parent="1" source="5Cm-LyO7Gywk7IhDr47E-171" target="5Cm-LyO7Gywk7IhDr47E-161">
          <mxGeometry width="100" relative="1" as="geometry">
            <mxPoint x="-141" y="434" as="sourcePoint" />
            <mxPoint x="-77" y="356" as="targetPoint" />
            <Array as="points">
              <mxPoint x="-121" y="433" />
              <mxPoint x="-121" y="356" />
            </Array>
          </mxGeometry>
        </mxCell>
        <mxCell id="5Cm-LyO7Gywk7IhDr47E-163" value="" style="edgeStyle=orthogonalEdgeStyle;html=1;endArrow=block;elbow=vertical;startArrow=none;endFill=1;strokeColor=#545B64;rounded=0;exitX=0.5;exitY=1;exitDx=0;exitDy=0;exitPerimeter=0;" edge="1" parent="1" source="5Cm-LyO7Gywk7IhDr47E-169" target="5Cm-LyO7Gywk7IhDr47E-173">
          <mxGeometry width="100" relative="1" as="geometry">
            <mxPoint x="-232" y="452.5" as="sourcePoint" />
            <mxPoint x="14" y="501.5004545351244" as="targetPoint" />
            <Array as="points">
              <mxPoint x="-221" y="496" />
            </Array>
          </mxGeometry>
        </mxCell>
        <mxCell id="5Cm-LyO7Gywk7IhDr47E-164" value="" style="edgeStyle=orthogonalEdgeStyle;html=1;endArrow=none;elbow=vertical;startArrow=block;startFill=1;strokeColor=#545B64;rounded=0;exitX=0.5;exitY=0;exitDx=0;exitDy=0;exitPerimeter=0;" edge="1" parent="1" source="5Cm-LyO7Gywk7IhDr47E-154">
          <mxGeometry width="100" relative="1" as="geometry">
            <mxPoint x="-111" y="676" as="sourcePoint" />
            <mxPoint x="-232" y="610" as="targetPoint" />
          </mxGeometry>
        </mxCell>
        <mxCell id="5Cm-LyO7Gywk7IhDr47E-165" value="" style="edgeStyle=orthogonalEdgeStyle;html=1;endArrow=none;elbow=vertical;startArrow=block;startFill=1;strokeColor=#545B64;rounded=0;exitX=0.5;exitY=0;exitDx=0;exitDy=0;exitPerimeter=0;" edge="1" parent="1" source="5Cm-LyO7Gywk7IhDr47E-154">
          <mxGeometry width="100" relative="1" as="geometry">
            <mxPoint x="-71" y="706" as="sourcePoint" />
            <mxPoint x="248" y="610" as="targetPoint" />
            <Array as="points">
              <mxPoint x="-231" y="646" />
              <mxPoint x="248" y="646" />
            </Array>
          </mxGeometry>
        </mxCell>
        <mxCell id="5Cm-LyO7Gywk7IhDr47E-166" value="NAT Gateway" style="sketch=0;outlineConnect=0;fontColor=#232F3E;gradientColor=none;fillColor=#8C4FFF;strokeColor=none;dashed=0;verticalLabelPosition=bottom;verticalAlign=top;align=center;html=1;fontSize=12;fontStyle=0;aspect=fixed;pointerEvents=1;shape=mxgraph.aws4.nat_gateway;" vertex="1" parent="1">
          <mxGeometry x="229" y="266" width="40" height="40" as="geometry" />
        </mxCell>
        <mxCell id="5Cm-LyO7Gywk7IhDr47E-167" value="" style="edgeStyle=orthogonalEdgeStyle;html=1;endArrow=block;elbow=vertical;startArrow=none;endFill=1;strokeColor=#545B64;rounded=0;" edge="1" parent="1" source="5Cm-LyO7Gywk7IhDr47E-161" target="5Cm-LyO7Gywk7IhDr47E-172">
          <mxGeometry width="100" relative="1" as="geometry">
            <mxPoint x="-31.75" y="356" as="sourcePoint" />
            <mxPoint x="232.5" y="435" as="targetPoint" />
            <Array as="points">
              <mxPoint x="139" y="356" />
              <mxPoint x="139" y="435" />
            </Array>
          </mxGeometry>
        </mxCell>
        <mxCell id="5Cm-LyO7Gywk7IhDr47E-168" value="" style="outlineConnect=0;dashed=0;verticalLabelPosition=bottom;verticalAlign=top;align=center;html=1;shape=mxgraph.aws3.ec2_compute_container;fillColor=#F58534;gradientColor=none;" vertex="1" parent="1">
          <mxGeometry x="219" y="446" width="60" height="34.5" as="geometry" />
        </mxCell>
        <mxCell id="5Cm-LyO7Gywk7IhDr47E-169" value="" style="outlineConnect=0;dashed=0;verticalLabelPosition=bottom;verticalAlign=top;align=center;html=1;shape=mxgraph.aws3.ec2_compute_container;fillColor=#F58534;gradientColor=none;" vertex="1" parent="1">
          <mxGeometry x="-251" y="446" width="60" height="34.5" as="geometry" />
        </mxCell>
        <mxCell id="5Cm-LyO7Gywk7IhDr47E-170" value="Auto Scaling group" style="points=[[0,0],[0.25,0],[0.5,0],[0.75,0],[1,0],[1,0.25],[1,0.5],[1,0.75],[1,1],[0.75,1],[0.5,1],[0.25,1],[0,1],[0,0.75],[0,0.5],[0,0.25]];outlineConnect=0;gradientColor=none;html=1;whiteSpace=wrap;fontSize=12;fontStyle=0;container=1;pointerEvents=0;collapsible=0;recursiveResize=0;shape=mxgraph.aws4.groupCenter;grIcon=mxgraph.aws4.group_auto_scaling_group;grStroke=1;strokeColor=#D86613;fillColor=none;verticalAlign=top;align=center;fontColor=#D86613;dashed=1;spacingTop=25;" vertex="1" parent="1">
          <mxGeometry x="-291" y="398.5" width="600" height="117.5" as="geometry" />
        </mxCell>
        <mxCell id="5Cm-LyO7Gywk7IhDr47E-171" value="EC2 instance contents" style="points=[[0,0],[0.25,0],[0.5,0],[0.75,0],[1,0],[1,0.25],[1,0.5],[1,0.75],[1,1],[0.75,1],[0.5,1],[0.25,1],[0,1],[0,0.75],[0,0.5],[0,0.25]];outlineConnect=0;gradientColor=none;html=1;whiteSpace=wrap;fontSize=12;fontStyle=0;container=1;pointerEvents=0;collapsible=0;recursiveResize=0;shape=mxgraph.aws4.group;grIcon=mxgraph.aws4.group_ec2_instance_contents;strokeColor=#D86613;fillColor=none;verticalAlign=top;align=left;spacingLeft=30;fontColor=#D86613;dashed=0;" vertex="1" parent="5Cm-LyO7Gywk7IhDr47E-170">
          <mxGeometry x="15.25" y="8.75" width="108.75" height="101.25" as="geometry" />
        </mxCell>
        <mxCell id="5Cm-LyO7Gywk7IhDr47E-172" value="EC2 instance contents" style="points=[[0,0],[0.25,0],[0.5,0],[0.75,0],[1,0],[1,0.25],[1,0.5],[1,0.75],[1,1],[0.75,1],[0.5,1],[0.25,1],[0,1],[0,0.75],[0,0.5],[0,0.25]];outlineConnect=0;gradientColor=none;html=1;whiteSpace=wrap;fontSize=12;fontStyle=0;container=1;pointerEvents=0;collapsible=0;recursiveResize=0;shape=mxgraph.aws4.group;grIcon=mxgraph.aws4.group_ec2_instance_contents;strokeColor=#D86613;fillColor=none;verticalAlign=top;align=left;spacingLeft=30;fontColor=#D86613;dashed=0;" vertex="1" parent="5Cm-LyO7Gywk7IhDr47E-170">
          <mxGeometry x="480" y="8.75" width="108.75" height="101.25" as="geometry" />
        </mxCell>
        <mxCell id="5Cm-LyO7Gywk7IhDr47E-173" value="ALB" style="sketch=0;outlineConnect=0;fontColor=#232F3E;gradientColor=none;fillColor=#8C4FFF;strokeColor=none;dashed=0;verticalLabelPosition=bottom;verticalAlign=top;align=center;html=1;fontSize=12;fontStyle=0;aspect=fixed;pointerEvents=1;shape=mxgraph.aws4.application_load_balancer;" vertex="1" parent="5Cm-LyO7Gywk7IhDr47E-170">
          <mxGeometry x="280" y="77.5" width="40" height="40" as="geometry" />
        </mxCell>
        <mxCell id="5Cm-LyO7Gywk7IhDr47E-174" value="" style="edgeStyle=orthogonalEdgeStyle;html=1;endArrow=none;elbow=vertical;startArrow=block;startFill=1;strokeColor=#545B64;rounded=0;entryX=0.5;entryY=1;entryDx=0;entryDy=0;entryPerimeter=0;" edge="1" parent="1" source="5Cm-LyO7Gywk7IhDr47E-173" target="5Cm-LyO7Gywk7IhDr47E-168">
          <mxGeometry width="100" relative="1" as="geometry">
            <mxPoint x="10.25" y="546.0004545351244" as="sourcePoint" />
            <mxPoint x="247.75" y="498.5" as="targetPoint" />
            <Array as="points">
              <mxPoint x="10" y="496" />
              <mxPoint x="248" y="496" />
            </Array>
          </mxGeometry>
        </mxCell>
        <mxCell id="5Cm-LyO7Gywk7IhDr47E-175" value="" style="edgeStyle=orthogonalEdgeStyle;html=1;endArrow=none;elbow=vertical;startArrow=block;startFill=1;strokeColor=#545B64;rounded=0;exitX=1;exitY=0.25;exitDx=0;exitDy=0;" edge="1" parent="1" source="5Cm-LyO7Gywk7IhDr47E-184" target="5Cm-LyO7Gywk7IhDr47E-173">
          <mxGeometry width="100" relative="1" as="geometry">
            <mxPoint x="-213" y="583.5" as="sourcePoint" />
            <mxPoint x="-7" y="506" as="targetPoint" />
            <Array as="points">
              <mxPoint x="-121" y="583" />
              <mxPoint x="-121" y="506" />
            </Array>
          </mxGeometry>
        </mxCell>
        <mxCell id="5Cm-LyO7Gywk7IhDr47E-176" value="" style="edgeStyle=orthogonalEdgeStyle;html=1;endArrow=block;elbow=vertical;startArrow=none;endFill=1;strokeColor=#545B64;rounded=0;" edge="1" parent="1" source="5Cm-LyO7Gywk7IhDr47E-173" target="5Cm-LyO7Gywk7IhDr47E-185">
          <mxGeometry width="100" relative="1" as="geometry">
            <mxPoint x="33" y="506" as="sourcePoint" />
            <mxPoint x="232.5" y="585" as="targetPoint" />
            <Array as="points">
              <mxPoint x="139" y="506" />
              <mxPoint x="139" y="585" />
            </Array>
          </mxGeometry>
        </mxCell>
        <mxCell id="5Cm-LyO7Gywk7IhDr47E-177" value="" style="outlineConnect=0;dashed=0;verticalLabelPosition=bottom;verticalAlign=top;align=center;html=1;shape=mxgraph.aws3.ec2_compute_container;fillColor=#F58534;gradientColor=none;" vertex="1" parent="1">
          <mxGeometry x="219" y="596" width="60" height="34.5" as="geometry" />
        </mxCell>
        <mxCell id="5Cm-LyO7Gywk7IhDr47E-178" value="" style="outlineConnect=0;dashed=0;verticalLabelPosition=bottom;verticalAlign=top;align=center;html=1;shape=mxgraph.aws3.ec2_compute_container;fillColor=#F58534;gradientColor=none;" vertex="1" parent="1">
          <mxGeometry x="-251" y="596" width="60" height="34.5" as="geometry" />
        </mxCell>
        <mxCell id="5Cm-LyO7Gywk7IhDr47E-179" value="" style="edgeStyle=orthogonalEdgeStyle;html=1;endArrow=none;elbow=vertical;startArrow=block;startFill=1;strokeColor=#545B64;rounded=0;exitX=0;exitY=0.25;exitDx=0;exitDy=0;entryX=1;entryY=0.5;entryDx=0;entryDy=0;entryPerimeter=0;" edge="1" parent="1" source="5Cm-LyO7Gywk7IhDr47E-171" target="5Cm-LyO7Gywk7IhDr47E-150">
          <mxGeometry width="100" relative="1" as="geometry">
            <mxPoint x="-631" y="433.5" as="sourcePoint" />
            <mxPoint x="-425" y="356" as="targetPoint" />
            <Array as="points">
              <mxPoint x="-432" y="433" />
              <mxPoint x="-432" y="525" />
            </Array>
          </mxGeometry>
        </mxCell>
        <mxCell id="5Cm-LyO7Gywk7IhDr47E-180" value="" style="edgeStyle=orthogonalEdgeStyle;html=1;endArrow=none;elbow=vertical;startArrow=block;startFill=1;strokeColor=#545B64;rounded=0;exitX=0.25;exitY=1;exitDx=0;exitDy=0;exitPerimeter=0;entryX=0.5;entryY=0;entryDx=0;entryDy=0;entryPerimeter=0;" edge="1" parent="1" source="5Cm-LyO7Gywk7IhDr47E-149" target="5Cm-LyO7Gywk7IhDr47E-213">
          <mxGeometry width="100" relative="1" as="geometry">
            <mxPoint x="-610" y="46" as="sourcePoint" />
            <mxPoint x="-715" y="346" as="targetPoint" />
            <Array as="points">
              <mxPoint x="-751" y="251" />
              <mxPoint x="-780" y="251" />
            </Array>
          </mxGeometry>
        </mxCell>
        <mxCell id="5Cm-LyO7Gywk7IhDr47E-181" value="" style="edgeStyle=orthogonalEdgeStyle;html=1;endArrow=none;elbow=vertical;startArrow=block;startFill=1;strokeColor=#545B64;rounded=0;exitX=0.25;exitY=1;exitDx=0;exitDy=0;entryX=1;entryY=0.5;entryDx=0;entryDy=0;entryPerimeter=0;" edge="1" parent="1" source="5Cm-LyO7Gywk7IhDr47E-217" target="5Cm-LyO7Gywk7IhDr47E-214">
          <mxGeometry width="100" relative="1" as="geometry">
            <mxPoint x="-665" y="346" as="sourcePoint" />
            <mxPoint x="-735" y="464" as="targetPoint" />
            <Array as="points">
              <mxPoint x="-562" y="311" />
              <mxPoint x="-619" y="311" />
              <mxPoint x="-619" y="409" />
            </Array>
          </mxGeometry>
        </mxCell>
        <mxCell id="5Cm-LyO7Gywk7IhDr47E-182" value="" style="edgeStyle=orthogonalEdgeStyle;html=1;endArrow=none;elbow=vertical;startArrow=block;startFill=1;strokeColor=#545B64;rounded=0;exitX=0;exitY=0.25;exitDx=0;exitDy=0;" edge="1" parent="1" source="5Cm-LyO7Gywk7IhDr47E-184" target="5Cm-LyO7Gywk7IhDr47E-150">
          <mxGeometry width="100" relative="1" as="geometry">
            <mxPoint x="-275" y="567.5" as="sourcePoint" />
            <mxPoint x="-431" y="474.5" as="targetPoint" />
            <Array as="points">
              <mxPoint x="-432" y="583" />
              <mxPoint x="-432" y="525" />
            </Array>
          </mxGeometry>
        </mxCell>
        <mxCell id="5Cm-LyO7Gywk7IhDr47E-183" value="Auto Scaling group" style="points=[[0,0],[0.25,0],[0.5,0],[0.75,0],[1,0],[1,0.25],[1,0.5],[1,0.75],[1,1],[0.75,1],[0.5,1],[0.25,1],[0,1],[0,0.75],[0,0.5],[0,0.25]];outlineConnect=0;gradientColor=none;html=1;whiteSpace=wrap;fontSize=12;fontStyle=0;container=1;pointerEvents=0;collapsible=0;recursiveResize=0;shape=mxgraph.aws4.groupCenter;grIcon=mxgraph.aws4.group_auto_scaling_group;grStroke=1;strokeColor=#D86613;fillColor=none;verticalAlign=top;align=center;fontColor=#D86613;dashed=1;spacingTop=25;" vertex="1" parent="1">
          <mxGeometry x="-291" y="548.5" width="600" height="117.5" as="geometry" />
        </mxCell>
        <mxCell id="5Cm-LyO7Gywk7IhDr47E-184" value="EC2 instance contents" style="points=[[0,0],[0.25,0],[0.5,0],[0.75,0],[1,0],[1,0.25],[1,0.5],[1,0.75],[1,1],[0.75,1],[0.5,1],[0.25,1],[0,1],[0,0.75],[0,0.5],[0,0.25]];outlineConnect=0;gradientColor=none;html=1;whiteSpace=wrap;fontSize=12;fontStyle=0;container=1;pointerEvents=0;collapsible=0;recursiveResize=0;shape=mxgraph.aws4.group;grIcon=mxgraph.aws4.group_ec2_instance_contents;strokeColor=#D86613;fillColor=none;verticalAlign=top;align=left;spacingLeft=30;fontColor=#D86613;dashed=0;" vertex="1" parent="5Cm-LyO7Gywk7IhDr47E-183">
          <mxGeometry x="15.25" y="8.75" width="108.75" height="101.25" as="geometry" />
        </mxCell>
        <mxCell id="5Cm-LyO7Gywk7IhDr47E-185" value="EC2 instance contents" style="points=[[0,0],[0.25,0],[0.5,0],[0.75,0],[1,0],[1,0.25],[1,0.5],[1,0.75],[1,1],[0.75,1],[0.5,1],[0.25,1],[0,1],[0,0.75],[0,0.5],[0,0.25]];outlineConnect=0;gradientColor=none;html=1;whiteSpace=wrap;fontSize=12;fontStyle=0;container=1;pointerEvents=0;collapsible=0;recursiveResize=0;shape=mxgraph.aws4.group;grIcon=mxgraph.aws4.group_ec2_instance_contents;strokeColor=#D86613;fillColor=none;verticalAlign=top;align=left;spacingLeft=30;fontColor=#D86613;dashed=0;" vertex="1" parent="5Cm-LyO7Gywk7IhDr47E-183">
          <mxGeometry x="480" y="8.75" width="108.75" height="101.25" as="geometry" />
        </mxCell>
        <mxCell id="5Cm-LyO7Gywk7IhDr47E-186" value="CloudFront" style="sketch=0;points=[[0,0,0],[0.25,0,0],[0.5,0,0],[0.75,0,0],[1,0,0],[0,1,0],[0.25,1,0],[0.5,1,0],[0.75,1,0],[1,1,0],[0,0.25,0],[0,0.5,0],[0,0.75,0],[1,0.25,0],[1,0.5,0],[1,0.75,0]];outlineConnect=0;fontColor=#232F3E;fillColor=#8C4FFF;strokeColor=#ffffff;dashed=0;verticalLabelPosition=bottom;verticalAlign=top;align=center;html=1;fontSize=12;fontStyle=0;aspect=fixed;shape=mxgraph.aws4.resourceIcon;resIcon=mxgraph.aws4.cloudfront;" vertex="1" parent="1">
          <mxGeometry x="-10" y="-24" width="49" height="49" as="geometry" />
        </mxCell>
        <mxCell id="5Cm-LyO7Gywk7IhDr47E-187" value="Certificate Manager" style="sketch=0;points=[[0,0,0],[0.25,0,0],[0.5,0,0],[0.75,0,0],[1,0,0],[0,1,0],[0.25,1,0],[0.5,1,0],[0.75,1,0],[1,1,0],[0,0.25,0],[0,0.5,0],[0,0.75,0],[1,0.25,0],[1,0.5,0],[1,0.75,0]];outlineConnect=0;fontColor=#232F3E;fillColor=#DD344C;strokeColor=#ffffff;dashed=0;verticalLabelPosition=bottom;verticalAlign=top;align=center;html=1;fontSize=12;fontStyle=0;aspect=fixed;shape=mxgraph.aws4.resourceIcon;resIcon=mxgraph.aws4.certificate_manager_3;" vertex="1" parent="1">
          <mxGeometry x="-381" y="-104" width="60" height="60" as="geometry" />
        </mxCell>
        <mxCell id="5Cm-LyO7Gywk7IhDr47E-188" value="IAM" style="sketch=0;outlineConnect=0;fontColor=#232F3E;gradientColor=none;fillColor=#DD344C;strokeColor=none;dashed=0;verticalLabelPosition=bottom;verticalAlign=top;align=center;html=1;fontSize=12;fontStyle=0;aspect=fixed;pointerEvents=1;shape=mxgraph.aws4.identity_access_management_iam_roles_anywhere;" vertex="1" parent="1">
          <mxGeometry x="-531" y="-104" width="60" height="60" as="geometry" />
        </mxCell>
        <mxCell id="5Cm-LyO7Gywk7IhDr47E-189" value="" style="sketch=0;outlineConnect=0;fontColor=#232F3E;gradientColor=none;fillColor=#232F3D;strokeColor=none;dashed=0;verticalLabelPosition=bottom;verticalAlign=top;align=center;html=1;fontSize=12;fontStyle=0;aspect=fixed;pointerEvents=1;shape=mxgraph.aws4.user;" vertex="1" parent="1">
          <mxGeometry x="-1221" y="872" width="50" height="50" as="geometry" />
        </mxCell>
        <mxCell id="5Cm-LyO7Gywk7IhDr47E-190" value="Lambda" style="sketch=0;points=[[0,0,0],[0.25,0,0],[0.5,0,0],[0.75,0,0],[1,0,0],[0,1,0],[0.25,1,0],[0.5,1,0],[0.75,1,0],[1,1,0],[0,0.25,0],[0,0.5,0],[0,0.75,0],[1,0.25,0],[1,0.5,0],[1,0.75,0]];outlineConnect=0;fontColor=#232F3E;fillColor=#ED7100;strokeColor=#ffffff;dashed=0;verticalLabelPosition=bottom;verticalAlign=top;align=center;html=1;fontSize=12;fontStyle=0;aspect=fixed;shape=mxgraph.aws4.resourceIcon;resIcon=mxgraph.aws4.lambda;" vertex="1" parent="1">
          <mxGeometry x="-256.5" y="926" width="50" height="50" as="geometry" />
        </mxCell>
        <mxCell id="5Cm-LyO7Gywk7IhDr47E-191" value="" style="endArrow=classic;html=1;rounded=0;exitX=0.5;exitY=1;exitDx=0;exitDy=0;exitPerimeter=0;" edge="1" parent="1" source="5Cm-LyO7Gywk7IhDr47E-154" target="5Cm-LyO7Gywk7IhDr47E-190">
          <mxGeometry width="50" height="50" relative="1" as="geometry">
            <mxPoint x="-101" y="966" as="sourcePoint" />
            <mxPoint x="-51" y="916" as="targetPoint" />
          </mxGeometry>
        </mxCell>
        <mxCell id="5Cm-LyO7Gywk7IhDr47E-192" value="EventBridge" style="sketch=0;points=[[0,0,0],[0.25,0,0],[0.5,0,0],[0.75,0,0],[1,0,0],[0,1,0],[0.25,1,0],[0.5,1,0],[0.75,1,0],[1,1,0],[0,0.25,0],[0,0.5,0],[0,0.75,0],[1,0.25,0],[1,0.5,0],[1,0.75,0]];outlineConnect=0;fontColor=#232F3E;fillColor=#E7157B;strokeColor=#ffffff;dashed=0;verticalLabelPosition=bottom;verticalAlign=top;align=center;html=1;fontSize=12;fontStyle=0;aspect=fixed;shape=mxgraph.aws4.resourceIcon;resIcon=mxgraph.aws4.eventbridge;" vertex="1" parent="1">
          <mxGeometry x="-156" y="922" width="58" height="58" as="geometry" />
        </mxCell>
        <mxCell id="5Cm-LyO7Gywk7IhDr47E-193" value="" style="endArrow=classic;html=1;rounded=0;exitX=0;exitY=0.5;exitDx=0;exitDy=0;exitPerimeter=0;" edge="1" parent="1" source="5Cm-LyO7Gywk7IhDr47E-192" target="5Cm-LyO7Gywk7IhDr47E-190">
          <mxGeometry width="50" height="50" relative="1" as="geometry">
            <mxPoint x="-177" y="957" as="sourcePoint" />
            <mxPoint x="-206" y="951" as="targetPoint" />
          </mxGeometry>
        </mxCell>
        <mxCell id="5Cm-LyO7Gywk7IhDr47E-194" value="" style="edgeStyle=orthogonalEdgeStyle;html=1;endArrow=block;elbow=vertical;startArrow=none;endFill=1;strokeColor=#545B64;rounded=0;entryX=1;entryY=0.5;entryDx=0;entryDy=0;entryPerimeter=0;exitX=0;exitY=0.5;exitDx=0;exitDy=0;exitPerimeter=0;" edge="1" parent="1" source="5Cm-LyO7Gywk7IhDr47E-190" target="5Cm-LyO7Gywk7IhDr47E-143">
          <mxGeometry width="100" relative="1" as="geometry">
            <mxPoint x="499" y="504.5" as="sourcePoint" />
            <mxPoint x="485" y="176" as="targetPoint" />
            <Array as="points">
              <mxPoint x="-397" y="951" />
              <mxPoint x="-397" y="951" />
            </Array>
          </mxGeometry>
        </mxCell>
        <mxCell id="5Cm-LyO7Gywk7IhDr47E-195" value="Github" style="shape=image;html=1;verticalAlign=top;verticalLabelPosition=bottom;labelBackgroundColor=#ffffff;imageAspect=0;aspect=fixed;image=https://cdn4.iconfinder.com/data/icons/ionicons/512/icon-social-github-128.png" vertex="1" parent="1">
          <mxGeometry x="-1021" y="376" width="66" height="66" as="geometry" />
        </mxCell>
        <mxCell id="5Cm-LyO7Gywk7IhDr47E-196" value="" style="edgeStyle=orthogonalEdgeStyle;html=1;endArrow=block;elbow=vertical;startArrow=none;endFill=1;strokeColor=#545B64;rounded=0;exitX=0.98;exitY=0.51;exitDx=0;exitDy=0;exitPerimeter=0;" edge="1" parent="1" source="5Cm-LyO7Gywk7IhDr47E-135" target="5Cm-LyO7Gywk7IhDr47E-195">
          <mxGeometry width="100" relative="1" as="geometry">
            <mxPoint x="-1035" y="419" as="sourcePoint" />
            <mxPoint x="-1111" y="411" as="targetPoint" />
          </mxGeometry>
        </mxCell>
        <mxCell id="5Cm-LyO7Gywk7IhDr47E-197" value="" style="endArrow=none;html=1;rounded=0;exitX=1;exitY=0.5;exitDx=0;exitDy=0;exitPerimeter=0;entryX=0;entryY=0.5;entryDx=0;entryDy=0;entryPerimeter=0;" edge="1" parent="1" source="5Cm-LyO7Gywk7IhDr47E-154" target="5Cm-LyO7Gywk7IhDr47E-158">
          <mxGeometry width="50" height="50" relative="1" as="geometry">
            <mxPoint x="-21" y="776" as="sourcePoint" />
            <mxPoint x="29" y="726" as="targetPoint" />
          </mxGeometry>
        </mxCell>
        <mxCell id="5Cm-LyO7Gywk7IhDr47E-198" value="" style="edgeStyle=orthogonalEdgeStyle;html=1;endArrow=block;elbow=vertical;startArrow=none;endFill=1;strokeColor=#545B64;rounded=0;entryX=0;entryY=0.5;entryDx=0;entryDy=0;entryPerimeter=0;" edge="1" parent="1" source="5Cm-LyO7Gywk7IhDr47E-195" target="5Cm-LyO7Gywk7IhDr47E-213">
          <mxGeometry width="100" relative="1" as="geometry">
            <mxPoint x="-900" y="408" as="sourcePoint" />
            <mxPoint x="-850" y="408" as="targetPoint" />
          </mxGeometry>
        </mxCell>
        <mxCell id="5Cm-LyO7Gywk7IhDr47E-199" value="" style="edgeStyle=orthogonalEdgeStyle;html=1;endArrow=none;elbow=vertical;startArrow=block;startFill=1;strokeColor=#545B64;rounded=0;entryX=0.75;entryY=1;entryDx=0;entryDy=0;entryPerimeter=0;exitX=0.5;exitY=0;exitDx=0;exitDy=0;exitPerimeter=0;" edge="1" parent="1" source="5Cm-LyO7Gywk7IhDr47E-214" target="5Cm-LyO7Gywk7IhDr47E-149">
          <mxGeometry width="100" relative="1" as="geometry">
            <mxPoint x="-666" y="385" as="sourcePoint" />
            <mxPoint x="-550" y="331" as="targetPoint" />
            <Array as="points">
              <mxPoint x="-666" y="253" />
              <mxPoint x="-722" y="253" />
            </Array>
          </mxGeometry>
        </mxCell>
        <mxCell id="5Cm-LyO7Gywk7IhDr47E-200" value="" style="points=[[0.35,0,0],[0.98,0.51,0],[1,0.71,0],[0.67,1,0],[0,0.795,0],[0,0.65,0]];verticalLabelPosition=bottom;sketch=0;html=1;verticalAlign=top;aspect=fixed;align=center;pointerEvents=1;shape=mxgraph.cisco19.user;fillColor=#005073;strokeColor=none;" vertex="1" parent="1">
          <mxGeometry x="-1226" y="605" width="50" height="50" as="geometry" />
        </mxCell>
        <mxCell id="5Cm-LyO7Gywk7IhDr47E-201" value="Github" style="shape=image;html=1;verticalAlign=top;verticalLabelPosition=bottom;labelBackgroundColor=#ffffff;imageAspect=0;aspect=fixed;image=https://cdn4.iconfinder.com/data/icons/ionicons/512/icon-social-github-128.png" vertex="1" parent="1">
          <mxGeometry x="-1021" y="597" width="66" height="66" as="geometry" />
        </mxCell>
        <mxCell id="5Cm-LyO7Gywk7IhDr47E-202" value="" style="edgeStyle=orthogonalEdgeStyle;html=1;endArrow=block;elbow=vertical;startArrow=none;endFill=1;strokeColor=#545B64;rounded=0;exitX=0.98;exitY=0.51;exitDx=0;exitDy=0;exitPerimeter=0;entryX=0;entryY=0.5;entryDx=0;entryDy=0;" edge="1" parent="1" source="5Cm-LyO7Gywk7IhDr47E-200" target="5Cm-LyO7Gywk7IhDr47E-201">
          <mxGeometry width="100" relative="1" as="geometry">
            <mxPoint x="-1176" y="597" as="sourcePoint" />
            <mxPoint x="-1067" y="633" as="targetPoint" />
          </mxGeometry>
        </mxCell>
        <mxCell id="5Cm-LyO7Gywk7IhDr47E-203" value="CodeBuild" style="sketch=0;points=[[0,0,0],[0.25,0,0],[0.5,0,0],[0.75,0,0],[1,0,0],[0,1,0],[0.25,1,0],[0.5,1,0],[0.75,1,0],[1,1,0],[0,0.25,0],[0,0.5,0],[0,0.75,0],[1,0.25,0],[1,0.5,0],[1,0.75,0]];outlineConnect=0;fontColor=#232F3E;fillColor=#C925D1;strokeColor=#ffffff;dashed=0;verticalLabelPosition=bottom;verticalAlign=top;align=center;html=1;fontSize=12;fontStyle=0;aspect=fixed;shape=mxgraph.aws4.resourceIcon;resIcon=mxgraph.aws4.codebuild;" vertex="1" parent="1">
          <mxGeometry x="-823" y="605" width="50" height="50" as="geometry" />
        </mxCell>
        <mxCell id="5Cm-LyO7Gywk7IhDr47E-204" value="" style="edgeStyle=orthogonalEdgeStyle;html=1;endArrow=block;elbow=vertical;startArrow=none;endFill=1;strokeColor=#545B64;rounded=0;exitX=1;exitY=0.5;exitDx=0;exitDy=0;entryX=0;entryY=0.5;entryDx=0;entryDy=0;entryPerimeter=0;" edge="1" parent="1" source="5Cm-LyO7Gywk7IhDr47E-201" target="5Cm-LyO7Gywk7IhDr47E-203">
          <mxGeometry width="100" relative="1" as="geometry">
            <mxPoint x="-907" y="682" as="sourcePoint" />
            <mxPoint x="-751" y="681" as="targetPoint" />
          </mxGeometry>
        </mxCell>
        <mxCell id="5Cm-LyO7Gywk7IhDr47E-205" value="" style="edgeStyle=orthogonalEdgeStyle;html=1;endArrow=block;elbow=vertical;startArrow=none;endFill=1;strokeColor=#545B64;rounded=0;exitX=0;exitY=0.5;exitDx=0;exitDy=0;exitPerimeter=0;" edge="1" parent="1" source="5Cm-LyO7Gywk7IhDr47E-147" target="5Cm-LyO7Gywk7IhDr47E-189">
          <mxGeometry width="100" relative="1" as="geometry">
            <mxPoint x="-978" y="826.5" as="sourcePoint" />
            <mxPoint x="-835" y="894" as="targetPoint" />
            <Array as="points">
              <mxPoint x="-964" y="951" />
              <mxPoint x="-964" y="900" />
            </Array>
          </mxGeometry>
        </mxCell>
        <mxCell id="5Cm-LyO7Gywk7IhDr47E-206" value="" style="group" vertex="1" connectable="0" parent="1">
          <mxGeometry x="-1048" y="550" width="299" height="154" as="geometry" />
        </mxCell>
        <mxCell id="5Cm-LyO7Gywk7IhDr47E-207" value="Iac CodePipeline&lt;div&gt;&lt;br&gt;&lt;/div&gt;" style="outlineConnect=0;gradientColor=none;html=1;whiteSpace=wrap;fontSize=12;fontStyle=0;strokeColor=#FF9900;fillColor=none;verticalAlign=top;align=center;fontColor=#FF9900;dashed=0;spacingTop=3;" vertex="1" parent="5Cm-LyO7Gywk7IhDr47E-206">
          <mxGeometry width="299" height="154" as="geometry" />
        </mxCell>
        <mxCell id="5Cm-LyO7Gywk7IhDr47E-208" value="" style="sketch=0;points=[[0,0,0],[0.25,0,0],[0.5,0,0],[0.75,0,0],[1,0,0],[0,1,0],[0.25,1,0],[0.5,1,0],[0.75,1,0],[1,1,0],[0,0.25,0],[0,0.5,0],[0,0.75,0],[1,0.25,0],[1,0.5,0],[1,0.75,0]];outlineConnect=0;fontColor=#232F3E;fillColor=#C925D1;strokeColor=#ffffff;dashed=0;verticalLabelPosition=bottom;verticalAlign=top;align=center;html=1;fontSize=12;fontStyle=0;aspect=fixed;shape=mxgraph.aws4.resourceIcon;resIcon=mxgraph.aws4.codepipeline;" vertex="1" parent="5Cm-LyO7Gywk7IhDr47E-206">
          <mxGeometry width="45.294117647058826" height="45.294117647058826" as="geometry" />
        </mxCell>
        <mxCell id="5Cm-LyO7Gywk7IhDr47E-209" value="" style="endArrow=classic;html=1;rounded=0;exitX=0;exitY=0.5;exitDx=0;exitDy=0;exitPerimeter=0;entryX=1;entryY=0.5;entryDx=0;entryDy=0;entryPerimeter=0;" edge="1" parent="1" source="5Cm-LyO7Gywk7IhDr47E-144" target="5Cm-LyO7Gywk7IhDr47E-146">
          <mxGeometry width="50" height="50" relative="1" as="geometry">
            <mxPoint x="-470" y="961" as="sourcePoint" />
            <mxPoint x="-516" y="961" as="targetPoint" />
          </mxGeometry>
        </mxCell>
        <mxCell id="5Cm-LyO7Gywk7IhDr47E-210" value="" style="endArrow=classic;html=1;rounded=0;exitX=0;exitY=0.5;exitDx=0;exitDy=0;exitPerimeter=0;entryX=1;entryY=0.5;entryDx=0;entryDy=0;entryPerimeter=0;" edge="1" parent="1" source="5Cm-LyO7Gywk7IhDr47E-146" target="5Cm-LyO7Gywk7IhDr47E-145">
          <mxGeometry width="50" height="50" relative="1" as="geometry">
            <mxPoint x="-680" y="891" as="sourcePoint" />
            <mxPoint x="-726" y="891" as="targetPoint" />
          </mxGeometry>
        </mxCell>
        <mxCell id="5Cm-LyO7Gywk7IhDr47E-211" value="" style="endArrow=classic;html=1;rounded=0;exitX=0;exitY=0.5;exitDx=0;exitDy=0;exitPerimeter=0;entryX=1;entryY=0.5;entryDx=0;entryDy=0;entryPerimeter=0;" edge="1" parent="1" source="5Cm-LyO7Gywk7IhDr47E-145" target="5Cm-LyO7Gywk7IhDr47E-147">
          <mxGeometry width="50" height="50" relative="1" as="geometry">
            <mxPoint x="-756" y="899" as="sourcePoint" />
            <mxPoint x="-804" y="899" as="targetPoint" />
          </mxGeometry>
        </mxCell>
        <mxCell id="5Cm-LyO7Gywk7IhDr47E-212" value="" style="edgeStyle=orthogonalEdgeStyle;html=1;endArrow=block;elbow=vertical;startArrow=none;endFill=1;strokeColor=#545B64;rounded=0;exitX=0;exitY=0.5;exitDx=0;exitDy=0;entryX=0.448;entryY=1.032;entryDx=0;entryDy=0;entryPerimeter=0;" edge="1" parent="1" source="5Cm-LyO7Gywk7IhDr47E-126" target="5Cm-LyO7Gywk7IhDr47E-200">
          <mxGeometry width="100" relative="1" as="geometry">
            <mxPoint x="-859" y="839" as="sourcePoint" />
            <mxPoint x="-1165" y="788" as="targetPoint" />
            <Array as="points">
              <mxPoint x="-1204" y="747" />
            </Array>
          </mxGeometry>
        </mxCell>
        <mxCell id="5Cm-LyO7Gywk7IhDr47E-213" value="CodeBuild" style="sketch=0;points=[[0,0,0],[0.25,0,0],[0.5,0,0],[0.75,0,0],[1,0,0],[0,1,0],[0.25,1,0],[0.5,1,0],[0.75,1,0],[1,1,0],[0,0.25,0],[0,0.5,0],[0,0.75,0],[1,0.25,0],[1,0.5,0],[1,0.75,0]];outlineConnect=0;fontColor=#232F3E;fillColor=#C925D1;strokeColor=#ffffff;dashed=0;verticalLabelPosition=bottom;verticalAlign=top;align=center;html=1;fontSize=12;fontStyle=0;aspect=fixed;shape=mxgraph.aws4.resourceIcon;resIcon=mxgraph.aws4.codebuild;" vertex="1" parent="1">
          <mxGeometry x="-805" y="383.5" width="50" height="50" as="geometry" />
        </mxCell>
        <mxCell id="5Cm-LyO7Gywk7IhDr47E-214" value="CodeDeploy" style="sketch=0;points=[[0,0,0],[0.25,0,0],[0.5,0,0],[0.75,0,0],[1,0,0],[0,1,0],[0.25,1,0],[0.5,1,0],[0.75,1,0],[1,1,0],[0,0.25,0],[0,0.5,0],[0,0.75,0],[1,0.25,0],[1,0.5,0],[1,0.75,0]];outlineConnect=0;fontColor=#232F3E;fillColor=#C925D1;strokeColor=#ffffff;dashed=0;verticalLabelPosition=bottom;verticalAlign=top;align=center;html=1;fontSize=12;fontStyle=0;aspect=fixed;shape=mxgraph.aws4.resourceIcon;resIcon=mxgraph.aws4.codedeploy;" vertex="1" parent="1">
          <mxGeometry x="-691" y="383.5" width="50" height="50" as="geometry" />
        </mxCell>
        <mxCell id="5Cm-LyO7Gywk7IhDr47E-215" value="" style="edgeStyle=orthogonalEdgeStyle;html=1;endArrow=block;elbow=vertical;startArrow=none;endFill=1;strokeColor=#545B64;rounded=0;exitX=1;exitY=0.5;exitDx=0;exitDy=0;exitPerimeter=0;entryX=0;entryY=0.5;entryDx=0;entryDy=0;entryPerimeter=0;" edge="1" parent="1" source="5Cm-LyO7Gywk7IhDr47E-213" target="5Cm-LyO7Gywk7IhDr47E-214">
          <mxGeometry width="100" relative="1" as="geometry">
            <mxPoint x="-712" y="476" as="sourcePoint" />
            <mxPoint x="-612" y="476" as="targetPoint" />
          </mxGeometry>
        </mxCell>
        <mxCell id="5Cm-LyO7Gywk7IhDr47E-216" value="CodeDeploy" style="sketch=0;points=[[0,0,0],[0.25,0,0],[0.5,0,0],[0.75,0,0],[1,0,0],[0,1,0],[0.25,1,0],[0.5,1,0],[0.75,1,0],[1,1,0],[0,0.25,0],[0,0.5,0],[0,0.75,0],[1,0.25,0],[1,0.5,0],[1,0.75,0]];outlineConnect=0;fontColor=#232F3E;fillColor=#C925D1;strokeColor=#ffffff;dashed=0;verticalLabelPosition=bottom;verticalAlign=top;align=center;html=1;fontSize=12;fontStyle=0;aspect=fixed;shape=mxgraph.aws4.resourceIcon;resIcon=mxgraph.aws4.codedeploy;" vertex="1" parent="1">
          <mxGeometry x="-546" y="383.5" width="50" height="50" as="geometry" />
        </mxCell>
        <mxCell id="5Cm-LyO7Gywk7IhDr47E-217" value="VPC - staging" style="points=[[0,0],[0.25,0],[0.5,0],[0.75,0],[1,0],[1,0.25],[1,0.5],[1,0.75],[1,1],[0.75,1],[0.5,1],[0.25,1],[0,1],[0,0.75],[0,0.5],[0,0.25]];outlineConnect=0;gradientColor=none;html=1;whiteSpace=wrap;fontSize=12;fontStyle=0;container=1;pointerEvents=0;collapsible=0;recursiveResize=0;shape=mxgraph.aws4.group;grIcon=mxgraph.aws4.group_vpc2;strokeColor=#8C4FFF;fillColor=none;verticalAlign=top;align=left;spacingLeft=30;fontColor=#AAB7B8;dashed=0;" vertex="1" parent="1">
          <mxGeometry x="-595" y="126" width="130" height="130" as="geometry" />
        </mxCell>
        <mxCell id="5Cm-LyO7Gywk7IhDr47E-218" value="" style="edgeStyle=orthogonalEdgeStyle;html=1;endArrow=none;elbow=vertical;startArrow=block;startFill=1;strokeColor=#545B64;rounded=0;exitX=0;exitY=0.5;exitDx=0;exitDy=0;exitPerimeter=0;" edge="1" parent="1" source="5Cm-LyO7Gywk7IhDr47E-216">
          <mxGeometry width="100" relative="1" as="geometry">
            <mxPoint x="-576" y="612" as="sourcePoint" />
            <mxPoint x="-641" y="409" as="targetPoint" />
            <Array as="points">
              <mxPoint x="-568" y="409" />
            </Array>
          </mxGeometry>
        </mxCell>
        <mxCell id="5Cm-LyO7Gywk7IhDr47E-219" value="" style="sketch=0;points=[[0,0,0],[0.25,0,0],[0.5,0,0],[0.75,0,0],[1,0,0],[0,1,0],[0.25,1,0],[0.5,1,0],[0.75,1,0],[1,1,0],[0,0.25,0],[0,0.5,0],[0,0.75,0],[1,0.25,0],[1,0.5,0],[1,0.75,0]];outlineConnect=0;fontColor=#232F3E;fillColor=#C925D1;strokeColor=#ffffff;dashed=0;verticalLabelPosition=bottom;verticalAlign=top;align=center;html=1;fontSize=12;fontStyle=0;aspect=fixed;shape=mxgraph.aws4.resourceIcon;resIcon=mxgraph.aws4.codepipeline;" vertex="1" parent="1">
          <mxGeometry x="-873" y="286" width="50" height="50" as="geometry" />
        </mxCell>
        <mxCell id="5Cm-LyO7Gywk7IhDr47E-220" value="" style="edgeStyle=orthogonalEdgeStyle;html=1;endArrow=block;elbow=vertical;startArrow=none;endFill=1;strokeColor=#545B64;rounded=0;exitX=0.5;exitY=1;exitDx=0;exitDy=0;exitPerimeter=0;" edge="1" parent="1" source="5Cm-LyO7Gywk7IhDr47E-216" target="5Cm-LyO7Gywk7IhDr47E-150">
          <mxGeometry width="100" relative="1" as="geometry">
            <mxPoint x="-653" y="557" as="sourcePoint" />
            <mxPoint x="-503" y="557" as="targetPoint" />
            <Array as="points">
              <mxPoint x="-521" y="478" />
              <mxPoint x="-521" y="478" />
            </Array>
          </mxGeometry>
        </mxCell>
      </root>
    </mxGraphModel>
  </diagram>
</mxfile>
